<svg width="530" height="97" viewBox="0 0 530 97" fill="none" xmlns="http://www.w3.org/2000/svg">
<path fill-rule="evenodd" clip-rule="evenodd" d="M0 36.4163V95H92V36.0651C82.9243 52.144 65.68 63 45.9 63C26.2644 63 9.12748 52.3018 0 36.4163Z" fill="#EEEEF0"/>
<path d="M116.091 95V1.90909H153.364C160.212 1.90909 165.924 2.92424 170.5 4.95454C175.076 6.98485 178.515 9.80303 180.818 13.4091C183.121 16.9848 184.273 21.1061 184.273 25.7727C184.273 29.4091 183.545 32.6061 182.091 35.3636C180.636 38.0909 178.636 40.3333 176.091 42.0909C173.576 43.8182 170.697 45.0455 167.455 45.7727V46.6818C171 46.8333 174.318 47.8333 177.409 49.6818C180.53 51.5303 183.061 54.1212 185 57.4545C186.939 60.7576 187.909 64.697 187.909 69.2727C187.909 74.2121 186.682 78.6212 184.227 82.5C181.803 86.3485 178.212 89.3939 173.455 91.6364C168.697 93.8788 162.833 95 155.864 95H116.091ZM135.773 78.9091H151.818C157.303 78.9091 161.303 77.8636 163.818 75.7727C166.333 73.6515 167.591 70.8333 167.591 67.3182C167.591 64.7424 166.97 62.4697 165.727 60.5C164.485 58.5303 162.712 56.9848 160.409 55.8636C158.136 54.7424 155.424 54.1818 152.273 54.1818H135.773V78.9091ZM135.773 40.8636H150.364C153.061 40.8636 155.455 40.3939 157.545 39.4545C159.667 38.4848 161.333 37.1212 162.545 35.3636C163.788 33.6061 164.409 31.5 164.409 29.0455C164.409 25.6818 163.212 22.9697 160.818 20.9091C158.455 18.8485 155.091 17.8182 150.727 17.8182H135.773V40.8636ZM195.596 95V1.90909H232.323C239.353 1.90909 245.353 3.16666 250.323 5.68182C255.323 8.16666 259.126 11.697 261.732 16.2727C264.369 20.8182 265.687 26.1667 265.687 32.3182C265.687 38.5 264.353 43.8182 261.687 48.2727C259.02 52.697 255.157 56.0909 250.096 58.4545C245.066 60.8182 238.975 62 231.823 62H207.232V46.1818H228.641C232.399 46.1818 235.52 45.6667 238.005 44.6364C240.49 43.6061 242.338 42.0606 243.55 40C244.793 37.9394 245.414 35.3788 245.414 32.3182C245.414 29.2273 244.793 26.6212 243.55 24.5C242.338 22.3788 240.475 20.7727 237.96 19.6818C235.475 18.5606 232.338 18 228.55 18H215.278V95H195.596ZM245.869 52.6364L269.005 95H247.278L224.641 52.6364H245.869ZM290.521 95H269.43L301.567 1.90909H326.93L359.021 95H337.93L314.612 23.1818H313.885L290.521 95ZM289.203 58.4091H339.021V73.7727H289.203V58.4091ZM403.049 96.2727C394.352 96.2727 386.701 94.3485 380.095 90.5C373.488 86.6212 368.337 81.1212 364.64 74C360.943 66.8485 359.095 58.3636 359.095 48.5455C359.095 41 360.216 34.2727 362.458 28.3636C364.701 22.4242 367.822 17.3939 371.822 13.2727C375.852 9.15151 380.534 6.01515 385.867 3.86363C391.201 1.71212 396.928 0.63636 403.049 0.63636C408.322 0.63636 413.246 1.40909 417.822 2.95454C422.428 4.4697 426.534 6.62121 430.14 9.40909C433.746 12.1667 436.685 15.4697 438.958 19.3182C441.261 23.1364 442.731 27.3636 443.367 32H423.458C422.822 29.7879 421.898 27.8333 420.685 26.1364C419.504 24.4091 418.034 22.9545 416.276 21.7727C414.549 20.5606 412.595 19.6364 410.413 19C408.261 18.3636 405.913 18.0455 403.367 18.0455C398.64 18.0455 394.443 19.2273 390.776 21.5909C387.11 23.9545 384.231 27.3939 382.14 31.9091C380.079 36.3939 379.049 41.8788 379.049 48.3636C379.049 54.8485 380.034 60.3636 382.004 64.9091C384.004 69.4545 386.807 72.9242 390.413 75.3182C394.019 77.6818 398.261 78.8636 403.14 78.8636C407.685 78.8636 411.564 78.0455 414.776 76.4091C417.988 74.7424 420.443 72.4394 422.14 69.5C423.867 66.5303 424.731 63.1061 424.731 59.2273L428.458 60H404.367V45.1818H444.14V95H430.685L429.549 84.3636H429.049C425.928 88.1515 422.231 91.0909 417.958 93.1818C413.716 95.2424 408.746 96.2727 403.049 96.2727ZM504.236 28.6818C503.872 25.0151 502.312 22.1667 499.554 20.1364C496.797 18.1061 493.054 17.0909 488.327 17.0909C485.115 17.0909 482.403 17.5455 480.19 18.4545C477.978 19.3333 476.281 20.5606 475.1 22.1364C473.948 23.7121 473.372 25.5 473.372 27.5C473.312 29.1667 473.66 30.6212 474.418 31.8636C475.206 33.1061 476.281 34.1818 477.645 35.0909C479.009 35.9697 480.584 36.7424 482.372 37.4091C484.16 38.0455 486.069 38.5909 488.1 39.0455L496.463 41.0455C500.524 41.9545 504.251 43.1667 507.645 44.6818C511.039 46.197 513.978 48.0606 516.463 50.2727C518.948 52.4848 520.872 55.0909 522.236 58.0909C523.63 61.0909 524.342 64.5303 524.372 68.4091C524.342 74.1061 522.887 79.0455 520.009 83.2273C517.16 87.3788 513.039 90.6061 507.645 92.9091C502.281 95.1818 495.812 96.3182 488.236 96.3182C480.721 96.3182 474.175 95.1667 468.6 92.8636C463.054 90.5606 458.721 87.1515 455.6 82.6364C452.509 78.0909 450.887 72.4697 450.736 65.7727H469.781C469.993 68.8939 470.887 71.5 472.463 73.5909C474.069 75.6515 476.206 77.2121 478.872 78.2727C481.569 79.303 484.615 79.8182 488.009 79.8182C491.342 79.8182 494.236 79.3333 496.69 78.3636C499.175 77.3939 501.1 76.0455 502.463 74.3182C503.827 72.5909 504.509 70.6061 504.509 68.3636C504.509 66.2727 503.887 64.5152 502.645 63.0909C501.433 61.6667 499.645 60.4545 497.281 59.4545C494.948 58.4545 492.084 57.5455 488.69 56.7273L478.554 54.1818C470.706 52.2727 464.509 49.2879 459.963 45.2273C455.418 41.1667 453.16 35.697 453.19 28.8182C453.16 23.1818 454.66 18.2576 457.69 14.0455C460.751 9.83333 464.948 6.54545 470.281 4.18182C475.615 1.81818 481.675 0.63636 488.463 0.63636C495.372 0.63636 501.403 1.81818 506.554 4.18182C511.736 6.54545 515.766 9.83333 518.645 14.0455C521.524 18.2576 523.009 23.1364 523.1 28.6818H504.236Z" fill="#EEEEF0"/>
</svg>
